<svg data-v-0dd9719b="" version="1.0" xmlns="http://www.w3.org/2000/svg" xmlns:xlink="http://www.w3.org/1999/xlink" width="100%" height="100%" viewBox="0 0 340.000000 250.000000" preserveAspectRatio="xMidYMid meet" color-interpolation-filters="sRGB" style="margin: auto;"> <rect data-v-0dd9719b="" x="0" y="0" width="100%" height="100%" fill="#fff" fill-opacity="1" class="background"></rect> <rect data-v-0dd9719b="" x="0" y="0" width="100%" height="100%" fill="url(#watermark)" fill-opacity="1" class="watermarklayer"></rect> <g data-v-0dd9719b="" fill="#333333" class="icon-text-wrapper icon-svg-group iconsvg" transform="translate(78.71499633789062,98.56362342834473)"><g class="iconsvg-imagesvg" transform="translate(0,0)"><g><rect fill="#333333" fill-opacity="0" stroke-width="2" x="0" y="0" width="60" height="52.87275290800141" class="image-rect"></rect> <svg x="0" y="0" width="60" height="52.87275290800141" filtersec="colorsb496124190" class="image-svg-svg primary" style="overflow: visible;"><svg xmlns="http://www.w3.org/2000/svg" viewBox="0 0 113.4800033569336 100"><g><g><path fill="#02035e" d="M84.94 62.54l-28.2-12.38-28.19 12.38L0 75.08 56.74 100l56.74-24.92-28.54-12.54z"></path><path fill="#00b0d8" opacity=".8" d="M84.94 37.46l-28.2-12.38-28.19 12.38L0 50l28.55 12.54 28.19 12.38 28.2-12.38L113.48 50 84.94 37.46z"></path><path fill="#00b0d8" opacity=".5" d="M56.74 0L0 24.92l28.55 12.54 28.19 12.38 28.2-12.38 28.54-12.54L56.74 0z"></path></g></g></svg></svg> <!----></g></g> <g transform="translate(67,5.8013763427734375)"><g data-gra="path-name" fill-rule="" class="tp-name iconsvg-namesvg"><g transform="scale(1)"><g><path d="M39.84-31.85L39.84-31.85Q39.84-29.96 39.29-28.47 38.74-26.98 37.77-25.8 36.79-24.64 35.49-23.73 34.19-22.82 32.63-22.04L32.63-22.04Q33.34-21.78 34.32-21.22 35.3-20.67 36.2-19.7 37.12-18.72 37.73-17.19 38.35-15.67 38.35-13.46L38.35-13.46Q38.35-10.53 37.12-8.06 35.88-5.59 33.44-3.8 31.01-2.02 27.46-1.01 23.92 0 19.3 0L19.3 0 0 0 8.78-41.27 25.87-41.27Q28.41-41.27 30.91-40.92 33.41-40.56 35.39-39.52 37.38-38.48 38.61-36.63 39.84-34.77 39.84-31.85ZM19.18-23.98L22.16-23.98Q23.6-23.98 24.6-24.83 25.61-25.68 26.26-26.94 26.91-28.21 27.23-29.67 27.56-31.14 27.56-32.3L27.56-32.3Q27.56-34.19 26.68-35.52 25.8-36.86 23.92-36.86L23.92-36.86 21.97-36.86 19.18-23.98ZM14.88-4.09L17.48-4.09Q19.44-4.09 20.73-5.2 22.04-6.31 22.88-7.93 23.73-9.55 24.08-11.34 24.44-13.13 24.44-14.5L24.44-14.5Q24.44-16.77 23.5-18.1 22.55-19.44 20.48-19.44L20.48-19.44 18.07-19.44 14.88-4.09ZM71.95-41.27L76.44 0 61.23 0 60.32-10.34 48.3-10.34 43.68 0 37.38 0 56.55-41.27 71.95-41.27ZM58.37-32.76L50.44-15.08 59.87-15.08 58.37-32.76ZM111.09-41.27L115.57 0 100.36 0 99.45-10.34 87.42-10.34 82.81 0 76.5 0 95.68-41.27 111.09-41.27ZM97.5-32.76L89.57-15.08 99-15.08 97.5-32.76Z" transform="translate(0, 41.27000045776367)"></path></g> <!----> <!----> <!----> <!----> <!----> <!----> <!----></g></g> <!----></g></g><defs v-gra="od"></defs></svg>